<?xml version="1.0" standalone="no"?>
<!DOCTYPE svg PUBLIC "-//W3C//DTD SVG 20010904//EN"
 "http://www.w3.org/TR/2001/REC-SVG-20010904/DTD/svg10.dtd">
<svg version="1.0" xmlns="http://www.w3.org/2000/svg"
 width="512.000000pt" height="512.000000pt" viewBox="0 0 512.000000 512.000000"
 preserveAspectRatio="xMidYMid meet">

<g transform="translate(0.000000,512.000000) scale(0.100000,-0.100000)"
fill="#000000" stroke="none">
<path d="M1325 5109 c-147 -19 -275 -71 -352 -142 -50 -46 -103 -144 -103
-192 0 -52 -11 -73 -49 -98 -96 -64 -133 -251 -100 -507 11 -87 11 -87 45 -98
29 -9 34 -8 34 6 0 10 14 46 32 82 29 60 32 76 38 202 6 127 9 142 39 202 18
36 45 75 62 87 77 55 202 63 353 24 119 -31 137 -31 255 0 113 30 233 33 305
9 109 -37 155 -128 163 -324 5 -102 10 -133 28 -170 12 -25 28 -62 34 -82 12
-35 14 -37 44 -31 18 3 33 6 34 7 3 2 25 261 30 359 9 167 -41 308 -154 428
-140 149 -332 229 -578 243 -49 2 -121 0 -160 -5z"/>
<path d="M3691 4935 c-129 -29 -222 -68 -311 -128 -113 -78 -177 -161 -231
-300 -39 -103 -93 -209 -173 -345 -84 -142 -120 -215 -153 -309 -23 -68 -27
-94 -27 -198 -1 -157 22 -237 121 -432 73 -143 118 -251 108 -261 -2 -2 -27
16 -55 41 -62 56 -169 111 -247 128 -99 20 -281 6 -390 -30 -111 -36 -220 -90
-290 -142 -29 -21 -55 -39 -59 -39 -3 0 -23 14 -44 30 l-38 30 5 -80 c5 -67 2
-87 -16 -129 -11 -27 -21 -58 -21 -68 0 -37 -60 -113 -147 -185 -48 -40 -105
-91 -126 -113 l-38 -39 -102 0 -102 1 -74 69 c-217 201 -248 243 -271 362 -10
48 -10 76 -1 119 6 31 9 58 8 60 -7 6 -242 -173 -263 -199 -11 -14 -54 -40
-95 -58 -41 -17 -128 -59 -194 -94 -104 -55 -133 -66 -218 -80 -151 -25 -141
-12 -133 -185 11 -249 47 -453 121 -676 285 -868 1033 -1505 1935 -1650 449
-71 936 -14 1335 158 l120 52 -2 115 c-4 147 -29 446 -47 550 -41 230 -162
338 -460 409 l-76 18 -22 -46 c-55 -114 -206 -217 -355 -243 -192 -32 -412 67
-504 227 -16 28 -29 53 -29 57 0 4 19 13 43 20 47 13 104 46 129 74 21 23 58
103 57 124 0 8 -23 26 -50 39 -78 36 -172 130 -213 213 -20 38 -38 84 -41 101
-6 30 -9 32 -44 29 -23 -2 -41 1 -48 10 -5 7 -31 59 -57 115 -58 128 -61 179
-16 225 26 26 36 30 75 26 43 -3 45 -2 45 22 0 36 53 116 92 140 37 22 47 24
203 39 123 12 248 43 389 96 66 25 103 34 121 29 17 -4 44 -31 76 -75 62 -84
131 -147 203 -185 31 -16 59 -37 62 -47 4 -13 14 -17 42 -14 l37 4 15 77 15
76 50 26 c127 67 197 144 210 235 7 44 5 48 -38 97 -66 74 -104 132 -152 235
-41 86 -99 247 -125 345 -8 32 -16 42 -31 42 -11 0 -34 7 -51 16 -30 16 -31
16 -25 80 7 89 43 158 137 259 102 110 120 148 131 281 4 58 16 129 25 157 23
70 92 138 159 158 62 17 172 16 251 -5 54 -14 64 -14 109 1 29 9 88 16 140 17
78 1 98 -3 147 -26 92 -43 148 -142 148 -263 0 -70 16 -151 40 -200 11 -22 56
-81 101 -129 89 -98 124 -161 134 -247 7 -53 5 -57 -20 -78 -15 -11 -40 -21
-54 -21 -25 0 -28 -5 -45 -72 -27 -106 -82 -250 -134 -352 -42 -82 -135 -212
-175 -245 -10 -8 -17 -28 -17 -48 0 -134 202 -268 553 -366 102 -29 104 -28
93 56 -5 32 -31 103 -71 187 -36 74 -69 160 -75 190 -20 104 11 226 101 397
108 201 146 341 136 492 -10 144 -49 247 -187 481 -79 134 -142 259 -160 315
-53 167 -166 294 -332 374 -57 27 -132 57 -168 66 -90 23 -297 29 -379 10z"/>
<path d="M1297 3684 c-105 -29 -134 -43 -176 -85 -32 -31 -81 -117 -81 -141 0
-7 -4 -19 -9 -26 -17 -28 -121 48 -175 128 l-16 24 0 -29 c0 -44 33 -160 68
-245 64 -151 197 -289 357 -371 78 -39 93 -43 175 -47 l90 -4 102 50 c174 85
290 200 364 358 37 79 74 203 74 249 l0 30 -18 -30 c-37 -60 -148 -140 -156
-113 -22 77 -45 119 -90 163 -47 47 -59 54 -164 84 -107 31 -162 35 -162 11 0
-15 -19 -12 -36 5 -20 20 -41 18 -147 -11z m192 -134 c20 -38 47 -54 122 -74
34 -10 82 -34 119 -62 59 -43 62 -47 57 -80 -13 -76 -101 -147 -183 -147 -35
0 -51 6 -74 28 -17 16 -34 43 -38 60 -11 42 -43 41 -54 -2 -12 -47 -60 -83
-111 -83 -61 0 -139 48 -173 106 l-27 45 38 39 c42 43 110 82 175 101 62 18
86 35 105 75 18 39 19 39 44 -6z"/>
</g>
</svg>
