<?xml version="1.0" standalone="no"?>
<!DOCTYPE svg PUBLIC "-//W3C//DTD SVG 20010904//EN"
 "http://www.w3.org/TR/2001/REC-SVG-20010904/DTD/svg10.dtd">
<svg version="1.0" xmlns="http://www.w3.org/2000/svg"
 width="512.000000pt" height="512.000000pt" viewBox="0 0 512.000000 512.000000"
 preserveAspectRatio="xMidYMid meet">

<g transform="translate(0.000000,512.000000) scale(0.100000,-0.100000)"
fill="#000000" stroke="none">
<path d="M710 4884 c0 -94 1 -97 35 -144 46 -62 107 -187 136 -275 19 -60 23
-97 27 -256 l4 -187 -36 -40 -36 -39 58 -6 c41 -4 63 -2 79 8 12 8 25 15 27
15 3 0 7 -81 8 -180 l3 -180 85 71 c256 212 571 372 896 455 239 60 300 66
745 71 l406 5 -1 102 c0 55 2 120 7 144 l7 42 -382 0 c-414 0 -544 -9 -750
-54 -280 -61 -550 -166 -766 -297 -36 -22 -66 -38 -67 -37 -1 2 -8 54 -14 115
-29 284 -154 530 -342 678 -40 31 -86 63 -101 71 l-28 15 0 -97z"/>
<path d="M1740 3223 c0 -120 -3 -269 -7 -330 l-6 -113 176 0 177 0 0 75 0 75
41 0 c87 0 174 74 199 168 25 98 -32 213 -126 250 -16 6 -112 27 -214 47 -102
19 -197 38 -212 41 l-28 6 0 -219z"/>
<path d="M3388 3033 l-38 -39 0 -483 c0 -300 4 -489 10 -501 8 -15 3 -24 -30
-50 l-40 -32 0 -154 0 -154 40 -80 c22 -44 42 -80 43 -80 2 0 18 21 35 48 39
60 133 156 142 145 5 -4 83 -147 175 -318 91 -170 179 -323 194 -338 65 -66
184 -48 227 34 36 71 28 94 -144 411 -87 161 -179 334 -204 383 -26 50 -75
142 -111 205 -36 63 -122 218 -191 345 l-126 229 115 116 115 116 -37 -4 c-83
-6 -125 44 -133 159 l-5 80 -37 -38z"/>
<path d="M1021 2184 c36 -23 59 -65 59 -108 0 -19 -18 -77 -41 -128 -22 -51
-43 -98 -45 -104 -4 -8 28 -11 103 -11 59 0 118 -3 129 -7 20 -6 28 8 93 155
39 89 71 167 71 174 0 20 -105 37 -255 42 -135 4 -139 3 -114 -13z"/>
<path d="M4040 2185 c0 -9 11 -20 25 -25 l25 -10 0 -158 0 -159 49 -6 c67 -8
180 -48 249 -89 32 -18 98 -74 148 -123 74 -74 99 -106 133 -175 64 -131 85
-229 78 -370 -3 -64 -13 -139 -22 -170 -80 -261 -281 -450 -542 -513 l-93 -22
0 -156 0 -156 -25 -11 c-86 -39 83 -42 231 -3 341 88 621 338 748 667 53 137
71 237 70 399 0 148 -9 209 -51 340 -51 159 -133 293 -253 419 -165 172 -369
280 -604 321 -116 20 -166 20 -166 0z"/>
<path d="M1675 2029 c-4 -6 -37 -82 -75 -169 l-67 -158 58 -51 c97 -85 186
-227 218 -347 l11 -42 123 -5 c240 -10 247 -9 247 16 0 44 -51 211 -89 292
-54 115 -132 227 -220 316 -86 85 -196 165 -206 148z"/>
<path d="M2288 1253 l-28 -4 0 -145 0 -144 30 0 c35 0 34 -3 14 46 -23 55 -21
150 4 207 12 26 18 46 14 46 -4 -1 -19 -4 -34 -6z"/>
<path d="M1797 867 c-40 -116 -103 -212 -198 -301 -98 -92 -222 -158 -348
-184 l-81 -17 0 -157 0 -157 -37 -11 c-21 -5 -55 -13 -76 -16 -26 -5 -34 -9
-25 -15 18 -12 96 -11 203 2 427 52 783 346 914 754 16 50 32 111 36 138 l7
47 -183 0 -184 0 -28 -83z"/>
</g>
</svg>
